<?xml version="1.0" encoding="UTF-8"?><svg id="Warstwa_1" xmlns="http://www.w3.org/2000/svg" viewBox="0 0 799.54 347.42"><defs><style>.cls-1{fill:#fff;}</style></defs><polygon class="cls-1" points="728.95 0 678.98 105.5 624.25 0 568.72 304.59 529.86 304.59 529.86 122.95 601.24 122.95 579.03 81.7 529.86 82.49 529.86 43.63 579.03 43.63 579.03 .79 487.82 .79 487.82 83.29 451.33 83.29 472.75 124.53 487.82 124.53 487.82 347.42 603.62 347.42 641.7 124.53 678.98 195.13 714.67 124.53 758.3 347.42 799.54 347.42 728.95 0"/><path class="cls-1" d="m0,0v43.63h36.49v303h42.04v-133.79c13.9,76.08,80.39,133.79,160.48,133.79s150.6-61.32,161.56-140.85v140.85h41.25V43.63h37.28V0H0Zm78.53,43.63h76.33c-39.31,23.73-67.78,63.45-76.33,110.24V43.63Zm159.28,262.07c-66.98,0-121.27-54.3-121.27-121.27s54.3-121.27,121.27-121.27,121.27,54.3,121.27,121.27-54.3,121.27-121.27,121.27Zm162.75-144.76c-6.86-49.83-36.14-92.39-77.41-117.3h77.41v117.3Z"/></svg>