<?xml version="1.0" encoding="UTF-8"?><svg id="Warstwa_1" xmlns="http://www.w3.org/2000/svg" viewBox="0 0 799.54 339.86"><defs><style>.cls-1{fill:#fff;}</style></defs><g><path class="cls-1" d="m35.38,319.23c0,2.99-.49,5.72-1.46,8.19-.97,2.47-2.34,4.6-4.1,6.37-1.76,1.77-3.88,3.15-6.36,4.13-2.47.98-5.22,1.47-8.24,1.47H0v-40.31h15.23c3.03,0,5.77.49,8.24,1.47,2.47.98,4.59,2.36,6.36,4.13,1.76,1.78,3.13,3.9,4.1,6.37.97,2.47,1.46,5.2,1.46,8.19Zm-6.69,0c0-2.31-.31-4.39-.94-6.24-.62-1.85-1.52-3.4-2.68-4.67-1.17-1.27-2.58-2.24-4.24-2.93-1.66-.68-3.53-1.02-5.6-1.02H6.57v29.73h8.65c2.07,0,3.94-.34,5.6-1.01,1.66-.67,3.08-1.65,4.24-2.93,1.17-1.28,2.06-2.84,2.68-4.67.63-1.84.94-3.93.94-6.26Z"/><path class="cls-1" d="m73.25,339.39h-5.85c-1.16,0-2-.45-2.52-1.34l-9.4-13.58c-.32-.46-.66-.8-1.03-1.01-.37-.21-.93-.31-1.68-.31h-3.64v16.24h-6.55v-40.31h11.87c2.65,0,4.93.27,6.84.81,1.91.54,3.49,1.31,4.72,2.31,1.23,1,2.14,2.2,2.73,3.59.59,1.4.88,2.96.88,4.67,0,1.4-.21,2.71-.63,3.92-.42,1.22-1.03,2.31-1.82,3.3-.79.99-1.77,1.85-2.93,2.58-1.16.72-2.47,1.29-3.95,1.7.8.49,1.49,1.17,2.07,2.05l10.89,15.37Zm-18.98-20.99c1.49,0,2.8-.18,3.92-.55,1.12-.36,2.05-.87,2.8-1.53.75-.65,1.31-1.43,1.68-2.34.37-.9.56-1.9.56-3.01,0-2.2-.73-3.88-2.18-5.04-1.46-1.16-3.66-1.74-6.61-1.74h-5.32v14.19h5.15Z"/><path class="cls-1" d="m93.75,334.1c1.55,0,2.93-.26,4.16-.78,1.22-.52,2.26-1.25,3.11-2.18.85-.93,1.49-2.06,1.95-3.38.45-1.32.67-2.77.67-4.38v-24.3h6.52v24.3c0,2.37-.38,4.56-1.13,6.57-.76,2.02-1.85,3.76-3.26,5.22-1.42,1.47-3.14,2.62-5.16,3.44-2.03.83-4.31,1.24-6.85,1.24s-4.82-.41-6.84-1.24c-2.02-.83-3.75-1.98-5.16-3.44-1.42-1.46-2.51-3.2-3.26-5.22-.76-2.01-1.13-4.21-1.13-6.57v-24.3h6.55v24.27c0,1.61.22,3.07.67,4.38.45,1.32,1.09,2.45,1.93,3.39.84.94,1.87,1.68,3.09,2.2,1.22.52,2.61.78,4.16.78Z"/><path class="cls-1" d="m125.8,316.32h1.88c.71,0,1.29-.1,1.74-.29.45-.2.85-.51,1.2-.94l12.21-14.56c.43-.54.87-.92,1.33-1.13.46-.21,1.03-.32,1.72-.32h5.6l-14.42,17.02c-.39.49-.77.89-1.13,1.22-.36.33-.76.6-1.19.8.56.21,1.07.49,1.51.85.45.36.89.84,1.32,1.44l14.95,18.98h-5.71c-.41,0-.76-.03-1.05-.08-.29-.06-.54-.14-.76-.26-.21-.11-.4-.25-.56-.42s-.3-.36-.43-.56l-12.6-15.4c-.19-.24-.37-.45-.56-.62-.19-.17-.41-.31-.66-.42-.25-.11-.54-.19-.86-.24-.31-.05-.69-.07-1.12-.07h-2.41v18.06h-6.55v-40.31h6.55v17.24Z"/><path class="cls-1" d="m206.34,319.23c0,2.99-.49,5.72-1.46,8.19-.97,2.47-2.34,4.6-4.1,6.37-1.76,1.77-3.88,3.15-6.36,4.13-2.47.98-5.22,1.47-8.24,1.47h-15.23v-40.31h15.23c3.03,0,5.77.49,8.24,1.47,2.47.98,4.59,2.36,6.36,4.13,1.76,1.78,3.13,3.9,4.1,6.37.97,2.47,1.46,5.2,1.46,8.19Zm-6.69,0c0-2.31-.31-4.39-.94-6.24-.62-1.85-1.52-3.4-2.68-4.67-1.17-1.27-2.58-2.24-4.24-2.93-1.66-.68-3.53-1.02-5.6-1.02h-8.65v29.73h8.65c2.07,0,3.94-.34,5.6-1.01,1.66-.67,3.08-1.65,4.24-2.93,1.17-1.28,2.06-2.84,2.68-4.67.63-1.84.94-3.93.94-6.26Z"/><path class="cls-1" d="m251.41,319.23c0,2.99-.48,5.74-1.45,8.26-.97,2.52-2.34,4.69-4.1,6.51-1.76,1.82-3.88,3.24-6.36,4.27-2.47,1.03-5.22,1.54-8.24,1.54s-5.75-.51-8.21-1.54c-2.47-1.03-4.6-2.45-6.37-4.27-1.77-1.82-3.14-3.99-4.11-6.51-.97-2.52-1.46-5.27-1.46-8.26s.49-5.74,1.46-8.26c.97-2.52,2.34-4.69,4.11-6.52,1.77-1.83,3.9-3.25,6.37-4.28,2.47-1.03,5.21-1.54,8.21-1.54s5.77.51,8.24,1.54c2.47,1.03,4.59,2.46,6.36,4.28,1.76,1.83,3.13,4,4.1,6.52.97,2.52,1.45,5.27,1.45,8.26Zm-6.69,0c0-2.31-.31-4.39-.94-6.24-.62-1.85-1.52-3.41-2.69-4.7-1.17-1.29-2.58-2.28-4.24-2.97-1.66-.69-3.53-1.04-5.6-1.04s-3.91.35-5.57,1.04c-1.66.69-3.08,1.68-4.26,2.97-1.18,1.29-2.08,2.86-2.72,4.7-.63,1.85-.95,3.93-.95,6.24s.32,4.42.95,6.27c.63,1.85,1.54,3.41,2.72,4.69,1.18,1.28,2.6,2.26,4.26,2.94,1.66.68,3.52,1.02,5.57,1.02s3.94-.34,5.6-1.02c1.66-.68,3.07-1.66,4.24-2.94,1.17-1.28,2.06-2.84,2.69-4.69.62-1.85.94-3.94.94-6.27Z"/><path class="cls-1" d="m279.65,305.96c-.21.34-.42.58-.64.74-.22.16-.51.24-.84.24s-.75-.15-1.19-.45c-.44-.3-.98-.63-1.62-.99-.64-.36-1.4-.7-2.28-1.01-.87-.31-1.92-.46-3.13-.46-1.12,0-2.1.14-2.95.42-.85.28-1.56.67-2.14,1.18-.58.51-1.01,1.1-1.3,1.78-.29.68-.43,1.43-.43,2.23,0,1.03.27,1.88.81,2.56.54.68,1.26,1.27,2.14,1.75.89.49,1.9.91,3.04,1.28,1.14.36,2.3.75,3.49,1.16,1.18.41,2.35.87,3.49,1.4,1.13.52,2.15,1.18,3.03,1.99.89.8,1.6,1.78,2.14,2.94.54,1.16.81,2.57.81,4.23,0,1.79-.31,3.47-.92,5.04-.62,1.57-1.51,2.93-2.67,4.1-1.17,1.17-2.6,2.09-4.31,2.76-1.71.67-3.65,1.01-5.84,1.01-1.29,0-2.54-.12-3.77-.38-1.22-.25-2.39-.61-3.5-1.06-1.11-.46-2.15-1.01-3.12-1.67-.97-.65-1.84-1.38-2.6-2.18l1.9-3.13c.17-.26.38-.46.64-.62s.55-.22.87-.22c.43,0,.91.2,1.43.6.52.4,1.15.84,1.89,1.32.73.47,1.63.91,2.67,1.31,1.05.4,2.3.6,3.75.6,2.37,0,4.2-.58,5.5-1.74,1.3-1.15,1.95-2.75,1.95-4.78,0-1.14-.27-2.07-.81-2.79-.54-.72-1.26-1.32-2.14-1.8-.89-.48-1.9-.89-3.04-1.23s-2.3-.7-3.47-1.08c-1.18-.38-2.33-.83-3.47-1.34-1.14-.51-2.15-1.18-3.03-2.01-.89-.83-1.6-1.85-2.14-3.08-.54-1.22-.81-2.75-.81-4.57,0-1.46.28-2.87.85-4.23.57-1.36,1.4-2.57,2.49-3.63,1.09-1.05,2.44-1.9,4.05-2.53,1.6-.63,3.43-.95,5.49-.95,2.31,0,4.44.36,6.37,1.09,1.93.73,3.59,1.76,4.99,3.11l-1.59,3.13Z"/><path class="cls-1" d="m295.66,316.32h1.88c.71,0,1.29-.1,1.74-.29.45-.2.85-.51,1.2-.94l12.21-14.56c.43-.54.87-.92,1.33-1.13.46-.21,1.03-.32,1.72-.32h5.6l-14.42,17.02c-.39.49-.77.89-1.13,1.22-.36.33-.76.6-1.19.8.56.21,1.07.49,1.51.85.45.36.89.84,1.32,1.44l14.95,18.98h-5.71c-.41,0-.76-.03-1.05-.08-.29-.06-.54-.14-.76-.26-.21-.11-.4-.25-.56-.42-.16-.17-.3-.36-.43-.56l-12.6-15.4c-.19-.24-.37-.45-.56-.62s-.41-.31-.66-.42c-.25-.11-.54-.19-.86-.24-.31-.05-.69-.07-1.12-.07h-2.41v18.06h-6.55v-40.31h6.55v17.24Z"/><path class="cls-1" d="m362.51,319.23c0,2.99-.48,5.74-1.45,8.26-.97,2.52-2.34,4.69-4.1,6.51-1.76,1.82-3.88,3.24-6.36,4.27-2.47,1.03-5.22,1.54-8.24,1.54s-5.75-.51-8.21-1.54c-2.47-1.03-4.6-2.45-6.37-4.27-1.77-1.82-3.14-3.99-4.11-6.51-.97-2.52-1.46-5.27-1.46-8.26s.49-5.74,1.46-8.26c.97-2.52,2.34-4.69,4.11-6.52,1.77-1.83,3.9-3.25,6.37-4.28,2.47-1.03,5.21-1.54,8.21-1.54s5.77.51,8.24,1.54c2.47,1.03,4.59,2.46,6.36,4.28,1.76,1.83,3.13,4,4.1,6.52.97,2.52,1.45,5.27,1.45,8.26Zm-6.69,0c0-2.31-.31-4.39-.94-6.24-.62-1.85-1.52-3.41-2.69-4.7-1.17-1.29-2.58-2.28-4.24-2.97-1.66-.69-3.53-1.04-5.6-1.04s-3.91.35-5.57,1.04c-1.66.69-3.08,1.68-4.26,2.97-1.18,1.29-2.08,2.86-2.72,4.7-.63,1.85-.95,3.93-.95,6.24s.32,4.42.95,6.27c.63,1.85,1.54,3.41,2.72,4.69,1.18,1.28,2.6,2.26,4.26,2.94,1.66.68,3.52,1.02,5.57,1.02s3.94-.34,5.6-1.02c1.66-.68,3.07-1.66,4.24-2.94,1.17-1.28,2.06-2.84,2.69-4.69.62-1.85.94-3.94.94-6.27Z"/><path class="cls-1" d="m403.05,299.08v40.31h-3.33c-.5,0-.93-.09-1.28-.26-.36-.18-.69-.47-1.01-.88l-22.14-28.44c.06.54.1,1.08.13,1.61s.04,1.02.04,1.47v26.51h-5.76v-40.31h3.41c.28,0,.52.01.72.04s.38.08.55.15c.17.07.32.19.47.33.15.15.31.34.48.56l22.17,28.47c-.06-.58-.1-1.15-.13-1.71s-.04-1.08-.04-1.57v-26.28h5.74Z"/><path class="cls-1" d="m446.38,339.39h-5.07c-.58,0-1.04-.15-1.4-.43-.36-.29-.62-.65-.81-1.08l-3.36-8.9h-17.35l-3.36,8.9c-.15.37-.41.72-.78,1.04-.37.31-.84.47-1.4.47h-5.07l15.98-40.31h6.63l15.98,40.31Zm-12.4-15.12l-5.54-14.73c-.45-1.13-.91-2.58-1.37-4.34-.21.88-.43,1.69-.67,2.42-.24.73-.46,1.39-.67,1.95l-5.54,14.69h13.8Z"/><path class="cls-1" d="m474.37,333.9v5.49h-23.29v-40.31h6.55v34.82h16.74Z"/><path class="cls-1" d="m505.17,334.1l-.03,5.29h-25.14v-40.31h25.14v5.29h-18.56v12.15h14.84v5.13h-14.84v12.46h18.59Z"/><path class="cls-1" d="m554.19,330.4c.35,0,.66.14.92.42l2.61,2.82c-1.64,1.98-3.66,3.51-6.05,4.58-2.39,1.08-5.24,1.61-8.57,1.61-2.95,0-5.61-.51-8-1.53-2.38-1.02-4.41-2.43-6.09-4.25-1.68-1.82-2.97-3.99-3.88-6.51-.9-2.52-1.36-5.29-1.36-8.32s.48-5.8,1.44-8.33c.96-2.52,2.31-4.7,4.06-6.52,1.74-1.82,3.83-3.23,6.27-4.24,2.43-1.01,5.12-1.51,8.05-1.51s5.48.47,7.71,1.42c2.23.94,4.16,2.2,5.81,3.76l-2.16,3.05c-.15.21-.33.38-.53.53-.21.15-.49.23-.84.23-.37,0-.8-.17-1.28-.52-.47-.35-1.08-.73-1.82-1.15-.74-.42-1.66-.8-2.77-1.15-1.11-.35-2.49-.52-4.16-.52-1.92,0-3.69.34-5.29,1.01-1.6.67-2.99,1.65-4.14,2.94-1.16,1.28-2.06,2.85-2.7,4.7-.65,1.85-.97,3.95-.97,6.3s.33,4.48,1.01,6.34c.67,1.86,1.59,3.43,2.77,4.7,1.18,1.28,2.56,2.26,4.14,2.93,1.59.67,3.29,1.01,5.13,1.01,1.12,0,2.12-.06,3.01-.18.89-.12,1.7-.31,2.45-.59.75-.27,1.45-.61,2.11-1.02.66-.41,1.32-.91,1.97-1.51.37-.33.75-.5,1.12-.5Z"/><path class="cls-1" d="m579.68,323.6v15.79h-6.52v-15.79l-14.73-24.52h5.74c.58,0,1.03.14,1.37.42.33.28.62.63.84,1.06l8.26,14.45c.37.72.71,1.42,1.02,2.07.31.66.58,1.3.82,1.93.21-.65.46-1.3.76-1.95.3-.64.63-1.33,1.01-2.05l8.2-14.45c.19-.37.46-.71.81-1.02.36-.31.82-.46,1.38-.46h5.76l-14.73,24.52Z"/><path class="cls-1" d="m605.6,304.37v12.9h15.76v5.29h-15.76v16.83h-6.57v-40.31h25.14v5.29h-18.56Z"/><path class="cls-1" d="m661.37,339.39h-5.85c-1.16,0-2-.45-2.52-1.34l-9.4-13.58c-.32-.46-.66-.8-1.03-1.01-.37-.21-.93-.31-1.68-.31h-3.64v16.24h-6.55v-40.31h11.87c2.65,0,4.93.27,6.84.81,1.91.54,3.49,1.31,4.72,2.31,1.23,1,2.14,2.2,2.73,3.59s.88,2.96.88,4.67c0,1.4-.21,2.71-.63,3.92-.42,1.22-1.03,2.31-1.82,3.3-.79.99-1.77,1.85-2.93,2.58-1.16.72-2.47,1.29-3.95,1.7.8.49,1.49,1.17,2.07,2.05l10.89,15.37Zm-18.98-20.99c1.49,0,2.8-.18,3.92-.55,1.12-.36,2.05-.87,2.8-1.53.75-.65,1.31-1.43,1.68-2.34.37-.9.56-1.9.56-3.01,0-2.2-.73-3.88-2.18-5.04-1.46-1.16-3.66-1.74-6.61-1.74h-5.32v14.19h5.15Z"/><path class="cls-1" d="m703.64,319.23c0,2.99-.48,5.74-1.45,8.26-.97,2.52-2.34,4.69-4.1,6.51-1.76,1.82-3.88,3.24-6.36,4.27-2.47,1.03-5.22,1.54-8.24,1.54s-5.75-.51-8.21-1.54c-2.47-1.03-4.6-2.45-6.37-4.27-1.77-1.82-3.14-3.99-4.11-6.51-.97-2.52-1.46-5.27-1.46-8.26s.49-5.74,1.46-8.26c.97-2.52,2.34-4.69,4.11-6.52,1.77-1.83,3.9-3.25,6.37-4.28,2.47-1.03,5.21-1.54,8.21-1.54s5.77.51,8.24,1.54c2.47,1.03,4.59,2.46,6.36,4.28,1.76,1.83,3.13,4,4.1,6.52.97,2.52,1.45,5.27,1.45,8.26Zm-6.69,0c0-2.31-.31-4.39-.94-6.24-.62-1.85-1.52-3.41-2.69-4.7-1.17-1.29-2.58-2.28-4.24-2.97-1.66-.69-3.53-1.04-5.6-1.04s-3.91.35-5.57,1.04c-1.66.69-3.08,1.68-4.26,2.97-1.18,1.29-2.08,2.86-2.72,4.7-.63,1.85-.95,3.93-.95,6.24s.32,4.42.95,6.27c.63,1.85,1.54,3.41,2.72,4.69,1.18,1.28,2.6,2.26,4.26,2.94,1.66.68,3.52,1.02,5.57,1.02s3.94-.34,5.6-1.02c1.66-.68,3.07-1.66,4.24-2.94,1.17-1.28,2.06-2.84,2.69-4.69.62-1.85.94-3.94.94-6.27Z"/><path class="cls-1" d="m763.1,299.08l-12.54,40.31h-5.91l-9.46-28.95c-.11-.31-.22-.66-.32-1.03-.1-.37-.2-.77-.3-1.2-.09.43-.19.83-.29,1.2-.1.37-.21.72-.32,1.03l-9.55,28.95h-5.9l-12.54-40.31h5.49c.56,0,1.03.13,1.41.41.38.27.64.64.77,1.1l7.56,25.84c.15.56.29,1.17.42,1.82.13.65.26,1.33.39,2.04.13-.71.27-1.39.43-2.05.16-.67.33-1.27.52-1.81l8.65-25.84c.13-.37.39-.72.78-1.03.39-.32.86-.47,1.4-.47h1.9c.58,0,1.05.14,1.4.43.36.29.63.65.82,1.08l8.62,25.84c.19.54.36,1.13.52,1.75.15.63.3,1.28.43,1.97.13-.69.26-1.34.38-1.97.12-.62.26-1.21.41-1.75l7.53-25.84c.11-.41.36-.76.77-1.06.4-.3.87-.45,1.41-.45h5.12Z"/><path class="cls-1" d="m784.82,323.6v15.79h-6.52v-15.79l-14.73-24.52h5.74c.58,0,1.03.14,1.37.42.33.28.62.63.84,1.06l8.26,14.45c.37.72.71,1.42,1.02,2.07.31.66.58,1.3.82,1.93.21-.65.46-1.3.76-1.95.3-.64.63-1.33,1.01-2.05l8.2-14.45c.19-.37.46-.71.81-1.02.36-.31.82-.46,1.38-.46h5.76l-14.73,24.52Z"/></g><g><polygon class="cls-1" points="652.2 0 613.86 80.95 571.86 0 529.26 233.72 499.43 233.72 499.43 94.34 554.21 94.34 537.17 62.69 499.43 63.3 499.43 33.48 537.17 33.48 537.17 .61 467.18 .61 467.18 63.91 439.18 63.91 455.61 95.56 467.18 95.56 467.18 266.58 556.04 266.58 585.25 95.56 613.86 149.73 641.25 95.56 674.72 266.58 706.37 266.58 652.2 0"/><path class="cls-1" d="m92.86,0v33.48h28v232.5h32.26v-102.66c10.66,58.38,61.68,102.66,123.14,102.66s115.56-47.05,123.97-108.08v108.08h31.65V33.48h28.61V0H92.86Zm60.26,33.48h58.57c-30.16,18.21-52.01,48.68-58.57,84.59V33.48Zm122.22,201.09c-51.39,0-93.05-41.66-93.05-93.05s41.66-93.05,93.05-93.05,93.05,41.66,93.05,93.05-41.66,93.05-93.05,93.05Zm124.89-111.08c-5.27-38.24-27.73-70.9-59.4-90.01h59.4v90.01Z"/></g></svg>