<?xml version="1.0" encoding="UTF-8"?><svg id="Warstwa_1" xmlns="http://www.w3.org/2000/svg" viewBox="0 0 796.72 399.73"><g><polygon points="694.59 0 649.51 95.17 600.14 0 550.05 274.77 514.99 274.77 514.99 110.91 579.39 110.91 559.35 73.7 514.99 74.42 514.99 39.35 559.35 39.35 559.35 .72 477.07 .72 477.07 75.13 444.15 75.13 463.47 112.34 477.07 112.34 477.07 313.41 581.54 313.41 615.88 112.34 649.51 176.02 681.71 112.34 721.07 313.41 758.27 313.41 694.59 0"/><path d="m37.01,0v39.35h32.91v273.34h37.92v-120.69c12.54,68.63,72.52,120.69,144.77,120.69s135.86-55.31,145.74-127.06v127.06h37.21V39.35h33.63V0H37.01Zm70.84,39.35h68.86c-35.46,21.41-61.14,57.24-68.86,99.45V39.35Zm143.69,236.41c-60.42,0-109.4-48.98-109.4-109.4s48.98-109.4,109.4-109.4,109.4,48.98,109.4,109.4-48.98,109.4-109.4,109.4Zm146.82-130.59c-6.19-44.95-32.6-83.35-69.83-105.82h69.83v105.82Z"/></g><g><path d="m40.32,376.21c0,3.4-.55,6.52-1.66,9.33-1.11,2.82-2.67,5.23-4.67,7.25-2.01,2.02-4.42,3.59-7.25,4.71-2.82,1.12-5.95,1.67-9.39,1.67H0v-45.94h17.36c3.44,0,6.57.56,9.39,1.67,2.82,1.12,5.23,2.69,7.25,4.71,2,2.02,3.56,4.44,4.67,7.25,1.1,2.82,1.66,5.93,1.66,9.33Zm-7.63,0c0-2.63-.36-5.01-1.07-7.11-.71-2.11-1.73-3.88-3.06-5.33-1.33-1.45-2.94-2.56-4.83-3.34-1.89-.77-4.01-1.16-6.37-1.16H7.5v33.88h9.86c2.36,0,4.49-.38,6.37-1.15,1.9-.77,3.51-1.87,4.83-3.33,1.34-1.46,2.35-3.23,3.06-5.33.71-2.1,1.07-4.47,1.07-7.13Z"/><path d="m56.02,399.18h-7.5v-45.94h7.5v45.94Z"/><path d="m104.54,376.56v18.19c-4.57,3.29-9.89,4.94-15.95,4.94-3.72,0-7.09-.58-10.09-1.74-3.01-1.16-5.58-2.78-7.7-4.85-2.13-2.07-3.77-4.54-4.91-7.41-1.15-2.87-1.73-6.03-1.73-9.48s.55-6.64,1.66-9.52c1.11-2.88,2.7-5.36,4.75-7.43,2.07-2.07,4.56-3.68,7.47-4.82,2.91-1.14,6.19-1.71,9.83-1.71,1.85,0,3.57.15,5.15.43,1.58.29,3.05.69,4.42,1.2s2.62,1.13,3.77,1.85c1.15.72,2.2,1.53,3.16,2.42l-2.14,3.41c-.34.53-.77.86-1.31.99-.53.12-1.1,0-1.73-.38-.61-.36-1.27-.75-1.96-1.15-.69-.41-1.49-.78-2.38-1.13s-1.92-.64-3.1-.86c-1.17-.23-2.55-.34-4.15-.34-2.42,0-4.61.4-6.55,1.2-1.95.8-3.61,1.94-4.99,3.41s-2.45,3.27-3.2,5.38c-.74,2.11-1.11,4.46-1.11,7.05,0,2.74.39,5.19,1.18,7.35.78,2.16,1.9,3.99,3.35,5.49,1.44,1.5,3.2,2.64,5.25,3.43,2.05.79,4.34,1.18,6.87,1.18,1.9,0,3.58-.2,5.06-.61,1.48-.41,2.93-.97,4.35-1.69v-9.12h-6.41c-.49,0-.87-.13-1.15-.4s-.42-.61-.42-1.04v-4.24h14.71Z"/><path d="m120.87,399.18h-7.5v-45.94h7.5v45.94Z"/><path d="m163.41,359.46h-14.33v39.72h-7.43v-39.72h-14.35v-6.22h36.11v6.22Z"/><path d="m203.73,399.18h-5.78c-.66,0-1.19-.16-1.59-.49-.41-.33-.71-.74-.93-1.23l-3.83-10.14h-19.78l-3.83,10.14c-.18.43-.47.82-.9,1.18s-.95.54-1.59.54h-5.78l18.22-45.94h7.56l18.22,45.94Zm-14.14-17.23l-6.32-16.78c-.51-1.3-1.03-2.95-1.56-4.94-.24,1-.49,1.92-.77,2.76-.28.84-.53,1.58-.77,2.22l-6.32,16.75h15.73Z"/><path d="m235.63,392.93v6.25h-26.54v-45.94h7.47v39.69h19.08Z"/><path d="m282.37,376.21c0,3.4-.55,6.52-1.66,9.33-1.11,2.82-2.67,5.23-4.67,7.25-2.01,2.02-4.42,3.59-7.25,4.71-2.82,1.12-5.95,1.67-9.39,1.67h-17.36v-45.94h17.36c3.44,0,6.57.56,9.39,1.67,2.82,1.12,5.23,2.69,7.25,4.71,2,2.02,3.56,4.44,4.67,7.25,1.1,2.82,1.66,5.93,1.66,9.33Zm-7.63,0c0-2.63-.36-5.01-1.07-7.11-.71-2.11-1.73-3.88-3.06-5.33-1.33-1.45-2.94-2.56-4.83-3.34-1.89-.77-4.01-1.16-6.37-1.16h-9.86v33.88h9.86c2.36,0,4.49-.38,6.37-1.15,1.9-.77,3.51-1.87,4.83-3.33,1.34-1.46,2.35-3.23,3.06-5.33.71-2.1,1.07-4.47,1.07-7.13Z"/><path d="m325.53,399.18h-6.67c-1.32,0-2.28-.51-2.88-1.53l-10.72-15.48c-.36-.53-.76-.91-1.18-1.15-.42-.23-1.06-.35-1.91-.35h-4.14v18.5h-7.47v-45.94h13.52c3.03,0,5.63.31,7.81.93,2.18.62,3.97,1.5,5.38,2.63,1.4,1.14,2.44,2.51,3.11,4.1.67,1.6,1.01,3.37,1.01,5.33,0,1.6-.24,3.08-.72,4.47-.47,1.38-1.17,2.64-2.07,3.77-.9,1.13-2.01,2.11-3.33,2.93-1.32.83-2.82,1.48-4.5,1.95.91.55,1.7,1.33,2.36,2.33l12.41,17.51Zm-21.63-23.93c1.7,0,3.19-.21,4.47-.62,1.27-.41,2.34-.99,3.19-1.74.85-.75,1.49-1.63,1.91-2.67.43-1.03.64-2.18.64-3.43,0-2.51-.83-4.42-2.49-5.74-1.66-1.32-4.17-1.98-7.53-1.98h-6.05v16.17h5.87Z"/><path d="m348.89,393.15c1.76,0,3.34-.3,4.74-.89,1.39-.6,2.57-1.43,3.54-2.49.96-1.06,1.7-2.34,2.22-3.84.51-1.5.77-3.16.77-4.99v-27.69h7.43v27.69c0,2.7-.44,5.2-1.29,7.5-.86,2.3-2.1,4.28-3.72,5.95-1.61,1.67-3.58,2.98-5.88,3.93-2.31.94-4.91,1.42-7.8,1.42s-5.49-.48-7.81-1.42c-2.31-.95-4.26-2.26-5.88-3.93-1.62-1.67-2.86-3.65-3.71-5.95-.86-2.3-1.3-4.79-1.3-7.5v-27.69h7.47v27.66c0,1.83.26,3.49.77,4.99.51,1.5,1.25,2.79,2.2,3.86.96,1.07,2.14,1.91,3.53,2.51,1.4.59,2.97.89,4.74.89Z"/><path d="m409.85,388.94c.4,0,.76.16,1.05.48l2.96,3.22c-1.87,2.25-4.17,3.99-6.89,5.22-2.72,1.22-5.97,1.83-9.76,1.83-3.36,0-6.4-.58-9.12-1.74-2.71-1.16-5.02-2.78-6.93-4.85-1.91-2.07-3.39-4.54-4.42-7.41-1.02-2.87-1.54-6.03-1.54-9.48s.54-6.61,1.64-9.49c1.09-2.88,2.63-5.36,4.63-7.44,1.99-2.07,4.37-3.68,7.15-4.83,2.78-1.15,5.83-1.72,9.17-1.72s6.25.54,8.79,1.61c2.54,1.08,4.74,2.51,6.61,4.29l-2.46,3.48c-.17.23-.37.44-.61.61s-.55.25-.95.25c-.43,0-.92-.2-1.45-.59-.54-.4-1.24-.83-2.07-1.31-.85-.48-1.9-.92-3.16-1.31-1.26-.39-2.85-.59-4.74-.59-2.2,0-4.2.38-6.04,1.15-1.82.77-3.4,1.88-4.72,3.35s-2.35,3.25-3.08,5.36c-.74,2.11-1.1,4.5-1.1,7.18s.38,5.11,1.15,7.23c.77,2.11,1.82,3.9,3.16,5.36,1.34,1.46,2.91,2.57,4.72,3.33,1.82.77,3.76,1.15,5.84,1.15,1.28,0,2.42-.07,3.44-.21,1.01-.14,1.94-.36,2.79-.67.85-.31,1.66-.7,2.41-1.17s1.5-1.04,2.25-1.72c.42-.38.85-.57,1.27-.57Z"/><path d="m427.82,372.9h2.14c.8,0,1.47-.12,1.98-.34s.97-.58,1.37-1.07l13.91-16.59c.49-.62.99-1.05,1.51-1.29.52-.24,1.18-.37,1.96-.37h6.38l-16.43,19.4c-.45.56-.87,1.01-1.29,1.39-.41.37-.86.68-1.35.91.63.24,1.21.56,1.72.97.52.41,1.01.96,1.5,1.64l17.04,21.63h-6.51c-.47,0-.87-.03-1.2-.1-.33-.06-.61-.16-.86-.28-.24-.13-.45-.29-.63-.48-.19-.19-.35-.4-.5-.64l-14.36-17.54c-.21-.28-.43-.51-.63-.7-.21-.19-.46-.35-.76-.48-.28-.12-.61-.21-.97-.27s-.78-.08-1.27-.08h-2.74v20.58h-7.47v-45.94h7.47v19.65Z"/><path d="m477.61,377.08h16.18v5.8h-16.18v-5.8Z"/><path d="m533.22,353.24c3,0,5.6.35,7.81,1.05,2.2.7,4.01,1.68,5.46,2.95,1.43,1.26,2.5,2.79,3.2,4.56s1.05,3.74,1.05,5.88-.37,4.2-1.11,6.01c-.75,1.82-1.85,3.38-3.32,4.69-1.47,1.31-3.29,2.33-5.47,3.06s-4.72,1.1-7.61,1.1h-6.82v16.62h-7.47v-45.94h14.29Zm0,23.42c1.66,0,3.12-.21,4.39-.64,1.26-.43,2.32-1.02,3.16-1.8.84-.77,1.48-1.72,1.9-2.82.43-1.11.64-2.34.64-3.7s-.2-2.54-.62-3.61c-.41-1.06-1.03-1.97-1.87-2.71-.83-.74-1.87-1.31-3.14-1.71-1.26-.39-2.74-.59-4.45-.59h-6.82v17.58h6.82Z"/><path d="m586.57,393.15l-.04,6.03h-28.65v-45.94h28.65v6.03h-21.15v13.85h16.91v5.83h-16.91v14.2h21.19Z"/><path d="m629.61,399.18h-6.67c-1.32,0-2.28-.51-2.88-1.53l-10.72-15.48c-.36-.53-.76-.91-1.18-1.15-.42-.23-1.06-.35-1.91-.35h-4.14v18.5h-7.47v-45.94h13.52c3.03,0,5.63.31,7.81.93,2.18.62,3.97,1.5,5.38,2.63,1.4,1.14,2.44,2.51,3.11,4.1.67,1.6,1.01,3.37,1.01,5.33,0,1.6-.24,3.08-.72,4.47-.47,1.38-1.17,2.64-2.07,3.77-.9,1.13-2.01,2.11-3.33,2.93-1.32.83-2.82,1.48-4.5,1.95.91.55,1.7,1.33,2.36,2.33l12.41,17.51Zm-21.63-23.93c1.7,0,3.19-.21,4.47-.62,1.27-.41,2.34-.99,3.19-1.74.85-.75,1.49-1.63,1.91-2.67s.64-2.18.64-3.43c0-2.51-.83-4.42-2.49-5.74-1.66-1.32-4.17-1.98-7.53-1.98h-6.05v16.17h5.87Z"/><path d="m642.66,359.27v14.71h17.96v6.03h-17.96v19.17h-7.5v-45.94h28.65v6.03h-21.15Z"/><path d="m699.92,393.15l-.04,6.03h-28.65v-45.94h28.65v6.03h-21.15v13.85h16.91v5.83h-16.91v14.2h21.19Z"/><path d="m715.46,372.9h2.14c.8,0,1.47-.12,1.98-.34s.97-.58,1.37-1.07l13.91-16.59c.49-.62.99-1.05,1.51-1.29.52-.24,1.18-.37,1.96-.37h6.38l-16.43,19.4c-.45.56-.87,1.01-1.29,1.39-.41.37-.86.68-1.35.91.63.24,1.21.56,1.72.97.52.41,1.01.96,1.5,1.64l17.04,21.63h-6.51c-.47,0-.87-.03-1.2-.1-.33-.06-.61-.16-.86-.28-.24-.13-.45-.29-.63-.48-.19-.19-.35-.4-.5-.64l-14.36-17.54c-.21-.28-.43-.51-.63-.7-.21-.19-.46-.35-.76-.48-.28-.12-.61-.21-.97-.27s-.78-.08-1.27-.08h-2.74v20.58h-7.47v-45.94h7.47v19.65Z"/><path d="m782.65,359.46h-14.33v39.72h-7.43v-39.72h-14.35v-6.22h36.11v6.22Z"/><path d="m787.84,395.23c0-.61.12-1.2.34-1.74.22-.54.53-1.02.94-1.42.4-.41.87-.73,1.4-.96.53-.23,1.12-.35,1.75-.35s1.2.12,1.74.35c.54.24,1.01.56,1.4.96.4.4.71.88.94,1.42.23.54.36,1.12.36,1.74s-.12,1.22-.36,1.75c-.23.53-.54,1-.94,1.41-.39.41-.85.72-1.4.94s-1.12.34-1.74.34-1.22-.12-1.75-.34c-.53-.22-1-.53-1.4-.94-.41-.41-.72-.87-.94-1.41-.22-.53-.34-1.11-.34-1.75Zm7.79-41.98v18.25c0,1.91-.09,3.79-.26,5.63-.17,1.84-.39,3.82-.67,5.95h-4.63c-.29-2.13-.53-4.11-.69-5.95-.16-1.84-.24-3.72-.24-5.63v-18.25h6.48Z"/></g></svg>