<?xml version="1.0" encoding="UTF-8"?><svg id="Warstwa_1" xmlns="http://www.w3.org/2000/svg" viewBox="0 0 699.92 340.56"><g><polygon points="602.67 0 564.15 81.32 521.96 0 479.17 234.78 449.21 234.78 449.21 94.77 504.23 94.77 487.11 62.97 449.21 63.59 449.21 33.63 487.11 33.63 487.11 .61 416.8 .61 416.8 64.2 388.68 64.2 405.19 95.99 416.8 95.99 416.8 267.79 506.07 267.79 535.41 95.99 564.15 150.4 591.66 95.99 625.29 267.79 657.08 267.79 602.67 0"/><path d="m40.79,0v33.63h28.12v233.56h32.4v-103.13c10.71,58.64,61.96,103.13,123.7,103.13s116.09-47.26,124.53-108.57v108.57h31.79V33.63h28.74V0H40.79Zm60.53,33.63h58.84c-30.3,18.29-52.25,48.91-58.84,84.98V33.63Zm122.78,202c-51.63,0-93.48-41.85-93.48-93.48s41.85-93.48,93.48-93.48,93.48,41.85,93.48,93.48-41.85,93.48-93.48,93.48Zm125.45-111.59c-5.29-38.41-27.86-71.22-59.67-90.42h59.67v90.42Z"/></g><g><path d="m12.08,301.31c2.54,0,4.73.3,6.59.89s3.4,1.42,4.61,2.5c1.21,1.07,2.12,2.35,2.71,3.85.59,1.5.89,3.16.89,4.98s-.32,3.55-.94,5.08c-.63,1.54-1.56,2.86-2.8,3.96s-2.78,1.97-4.63,2.59c-1.84.62-3.98.93-6.43.93h-5.77v14.05H0v-38.82h12.08Zm0,19.79c1.4,0,2.64-.18,3.71-.54s1.96-.87,2.67-1.52c.71-.66,1.25-1.45,1.6-2.38.36-.94.54-1.98.54-3.13s-.17-2.15-.52-3.05c-.35-.9-.88-1.66-1.58-2.29s-1.59-1.11-2.66-1.44-2.32-.5-3.76-.5h-5.77v14.86h5.77Z"/><path d="m57.15,335.03l-.03,5.1h-24.21v-38.82h24.21v5.1h-17.87v11.7h14.29v4.93h-14.29v12h17.9Z"/><path d="m93.51,340.13h-5.63c-1.11,0-1.92-.43-2.42-1.29l-9.06-13.08c-.3-.45-.64-.77-.99-.97-.36-.2-.9-.3-1.62-.3h-3.5v15.63h-6.31v-38.82h11.43c2.55,0,4.74.26,6.59.78s3.36,1.26,4.55,2.23c1.19.96,2.06,2.11,2.63,3.46s.85,2.85.85,4.5c0,1.35-.2,2.61-.6,3.77-.41,1.17-.99,2.23-1.76,3.18-.77.95-1.7,1.78-2.81,2.48-1.12.7-2.39,1.25-3.8,1.65.77.47,1.44,1.12,1.99,1.97l10.48,14.8Zm-18.28-20.22c1.44,0,2.7-.18,3.77-.53,1.08-.35,1.98-.84,2.7-1.47s1.26-1.38,1.62-2.25c.36-.87.54-1.84.54-2.9,0-2.12-.7-3.74-2.11-4.85-1.4-1.11-3.52-1.67-6.36-1.67h-5.12v13.67h4.96Z"/><path d="m104.54,306.4v12.43h15.18v5.1h-15.18v16.2h-6.34v-38.82h24.21v5.1h-17.87Z"/><path d="m152.93,335.03l-.03,5.1h-24.21v-38.82h24.21v5.1h-17.87v11.7h14.29v4.93h-14.29v12h17.9Z"/><path d="m185.87,331.47c.34,0,.64.13.89.4l2.51,2.72c-1.59,1.9-3.53,3.37-5.83,4.41-2.3,1.03-5.05,1.55-8.25,1.55-2.84,0-5.41-.49-7.69-1.47-2.29-.98-4.25-2.35-5.87-4.1-1.61-1.75-2.86-3.84-3.73-6.27-.87-2.43-1.3-5.1-1.3-8.01s.46-5.58,1.39-8.02c.92-2.44,2.23-4.53,3.91-6.28s3.69-3.11,6.04-4.08,4.93-1.45,7.75-1.45,5.28.45,7.43,1.36,4.01,2.11,5.59,3.62l-2.08,2.94c-.15.2-.32.37-.51.51-.19.14-.46.22-.81.22s-.77-.17-1.22-.5c-.46-.33-1.05-.7-1.76-1.11-.71-.4-1.6-.77-2.67-1.1-1.07-.33-2.4-.5-4-.5-1.85,0-3.55.32-5.1.97-1.55.65-2.88,1.59-3.99,2.83-1.12,1.24-1.98,2.75-2.6,4.53s-.93,3.8-.93,6.06.32,4.32.97,6.11c.64,1.79,1.54,3.3,2.67,4.53,1.13,1.23,2.46,2.17,3.99,2.82s3.17.97,4.93.97c1.08,0,2.05-.06,2.9-.18s1.64-.3,2.36-.56,1.4-.59,2.04-.99,1.27-.88,1.9-1.45c.36-.32.71-.49,1.08-.49Z"/><path d="m221.45,306.56h-12.1v33.56h-6.28v-33.56h-12.13v-5.26h30.52v5.26Z"/><path d="m272.73,320.71c0,2.88-.46,5.51-1.4,7.89s-2.25,4.43-3.95,6.13c-1.7,1.71-3.74,3.03-6.12,3.98-2.38.94-5.03,1.42-7.94,1.42h-14.67v-38.82h14.67c2.91,0,5.56.47,7.94,1.42,2.38.94,4.42,2.27,6.12,3.98,1.7,1.71,3.01,3.75,3.95,6.13s1.4,5.01,1.4,7.88Zm-6.44,0c0-2.23-.3-4.23-.9-6.01-.6-1.78-1.47-3.28-2.59-4.5s-2.48-2.16-4.08-2.82c-1.6-.66-3.39-.98-5.39-.98h-8.33v28.63h8.33c1.99,0,3.79-.32,5.39-.97,1.6-.65,2.96-1.59,4.08-2.82,1.12-1.23,1.99-2.73,2.59-4.5s.9-3.78.9-6.03Z"/><path d="m286,340.13h-6.34v-38.82h6.34v38.82Z"/><path d="m327,321.01v15.37c-3.87,2.78-8.36,4.18-13.48,4.18-3.15,0-5.99-.49-8.54-1.47-2.54-.98-4.71-2.35-6.51-4.1-1.8-1.75-3.18-3.84-4.15-6.27-.97-2.43-1.46-5.1-1.46-8.01s.47-5.61,1.4-8.04c.93-2.44,2.27-4.53,4.01-6.28s3.85-3.11,6.31-4.07c2.46-.96,5.23-1.44,8.3-1.44,1.56,0,3.01.12,4.35.36s2.59.58,3.73,1.01c1.15.43,2.21.95,3.18,1.56s1.86,1.29,2.67,2.05l-1.81,2.89c-.29.45-.66.73-1.11.83-.44.11-.93,0-1.45-.32-.52-.31-1.08-.63-1.66-.97s-1.25-.66-2.01-.96c-.75-.3-1.63-.54-2.62-.73-.99-.19-2.16-.28-3.5-.28-2.05,0-3.9.34-5.54,1.01-1.64.67-3.05,1.64-4.22,2.88s-2.07,2.76-2.7,4.54c-.63,1.78-.94,3.76-.94,5.96,0,2.32.33,4.39.99,6.22.67,1.82,1.61,3.37,2.83,4.64s2.7,2.23,4.43,2.9c1.74.66,3.67,1,5.81,1,1.6,0,3.02-.17,4.28-.51,1.25-.34,2.47-.82,3.68-1.43v-7.71h-5.42c-.41,0-.74-.11-.97-.34s-.35-.51-.35-.87v-3.59h12.43Z"/><path d="m340.8,340.13h-6.34v-38.82h6.34v38.82Z"/><path d="m376.74,306.56h-12.1v33.56h-6.28v-33.56h-12.13v-5.26h30.52v5.26Z"/><path d="m410.82,340.13h-4.88c-.56,0-1.01-.14-1.35-.42s-.6-.62-.78-1.04l-3.24-8.57h-16.71l-3.24,8.57c-.15.36-.4.69-.75,1-.36.31-.81.46-1.35.46h-4.88l15.39-38.82h6.39l15.4,38.82Zm-11.95-14.56l-5.34-14.18c-.43-1.1-.87-2.49-1.32-4.18-.2.85-.42,1.62-.65,2.33-.23.71-.44,1.34-.64,1.88l-5.34,14.15h13.29Z"/><path d="m437.77,334.84v5.28h-22.43v-38.82h6.31v33.54h16.12Z"/><path d="m467.08,301.31c2.54,0,4.73.3,6.59.89s3.4,1.42,4.61,2.5c1.21,1.07,2.12,2.35,2.71,3.85.59,1.5.89,3.16.89,4.98s-.32,3.55-.94,5.08c-.63,1.54-1.56,2.86-2.8,3.96s-2.78,1.97-4.63,2.59c-1.84.62-3.98.93-6.43.93h-5.77v14.05h-6.31v-38.82h12.08Zm0,19.79c1.4,0,2.64-.18,3.71-.54s1.96-.87,2.67-1.52c.71-.66,1.25-1.45,1.6-2.38.36-.94.54-1.98.54-3.13s-.17-2.15-.52-3.05c-.35-.9-.88-1.66-1.58-2.29s-1.59-1.11-2.66-1.44-2.32-.5-3.76-.5h-5.77v14.86h5.77Z"/><path d="m517.46,340.13h-5.63c-1.11,0-1.92-.43-2.42-1.29l-9.06-13.08c-.3-.45-.64-.77-.99-.97-.36-.2-.9-.3-1.62-.3h-3.5v15.63h-6.31v-38.82h11.43c2.55,0,4.74.26,6.59.78s3.36,1.26,4.55,2.23c1.19.96,2.06,2.11,2.63,3.46s.85,2.85.85,4.5c0,1.35-.2,2.61-.6,3.77-.41,1.17-.99,2.23-1.76,3.18-.77.95-1.7,1.78-2.81,2.48-1.12.7-2.39,1.25-3.8,1.65.77.47,1.44,1.12,1.99,1.97l10.48,14.8Zm-18.28-20.22c1.44,0,2.7-.18,3.77-.53,1.08-.35,1.98-.84,2.7-1.47s1.26-1.38,1.62-2.25c.36-.87.54-1.84.54-2.9,0-2.12-.7-3.74-2.11-4.85-1.4-1.11-3.52-1.67-6.36-1.67h-5.12v13.67h4.96Z"/><path d="m528.49,340.13h-6.34v-38.82h6.34v38.82Z"/><path d="m569.85,301.31v38.82h-3.21c-.49,0-.9-.08-1.24-.26s-.66-.45-.97-.85l-21.32-27.39c.05.52.09,1.04.12,1.55.03.51.04.98.04,1.41v25.53h-5.55v-38.82h3.29c.27,0,.5.01.69.04.19.03.36.08.53.15.16.07.31.18.46.32.14.14.3.32.46.54l21.35,27.42c-.06-.56-.09-1.11-.12-1.64s-.04-1.04-.04-1.51v-25.31h5.53Z"/><path d="m605.8,306.56h-12.1v33.56h-6.28v-33.56h-12.13v-5.26h30.52v5.26Z"/><path d="m617.53,340.13h-6.34v-38.82h6.34v38.82Z"/><path d="m658.89,301.31v38.82h-3.21c-.49,0-.9-.08-1.24-.26s-.66-.45-.97-.85l-21.32-27.39c.05.52.09,1.04.12,1.55.03.51.04.98.04,1.41v25.53h-5.55v-38.82h3.29c.27,0,.5.01.69.04.19.03.36.08.53.15.16.07.31.18.46.32.14.14.3.32.46.54l21.35,27.42c-.06-.56-.09-1.11-.12-1.64s-.04-1.04-.04-1.51v-25.31h5.53Z"/><path d="m699.92,321.01v15.37c-3.87,2.78-8.36,4.18-13.48,4.18-3.15,0-5.99-.49-8.54-1.47-2.54-.98-4.71-2.35-6.51-4.1-1.8-1.75-3.18-3.84-4.15-6.27-.97-2.43-1.46-5.1-1.46-8.01s.47-5.61,1.4-8.04c.93-2.44,2.27-4.53,4.01-6.28,1.74-1.75,3.85-3.11,6.31-4.07,2.46-.96,5.23-1.44,8.3-1.44,1.56,0,3.01.12,4.35.36s2.59.58,3.73,1.01c1.15.43,2.21.95,3.18,1.56s1.86,1.29,2.67,2.05l-1.81,2.89c-.29.45-.66.73-1.11.83-.44.11-.93,0-1.45-.32-.52-.31-1.08-.63-1.66-.97s-1.25-.66-2.01-.96c-.75-.3-1.63-.54-2.62-.73-.99-.19-2.16-.28-3.5-.28-2.05,0-3.9.34-5.54,1.01-1.64.67-3.05,1.64-4.22,2.88s-2.07,2.76-2.7,4.54c-.63,1.78-.94,3.76-.94,5.96,0,2.32.33,4.39.99,6.22.67,1.82,1.61,3.37,2.83,4.64s2.7,2.23,4.43,2.9c1.74.66,3.67,1,5.81,1,1.6,0,3.02-.17,4.28-.51,1.25-.34,2.47-.82,3.68-1.43v-7.71h-5.42c-.41,0-.74-.11-.97-.34s-.35-.51-.35-.87v-3.59h12.43Z"/></g></svg>