<?xml version="1.0" encoding="UTF-8"?><svg id="Warstwa_1" xmlns="http://www.w3.org/2000/svg" viewBox="0 0 796.72 437.96"><defs><style>.cls-1{fill:#003b71;}</style></defs><g><path class="cls-1" d="m15.92,386.22c3.34,0,6.24.39,8.69,1.17,2.45.78,4.48,1.88,6.08,3.29,1.6,1.41,2.79,3.11,3.57,5.08.79,1.98,1.17,4.16,1.17,6.56s-.42,4.67-1.24,6.7-2.06,3.77-3.7,5.22c-1.63,1.46-3.67,2.59-6.1,3.41-2.42.82-5.25,1.23-8.47,1.23h-7.61v18.52H0v-51.18h15.92Zm0,26.09c1.85,0,3.48-.24,4.89-.71s2.58-1.14,3.52-2.01c.94-.86,1.64-1.91,2.12-3.15s.71-2.61.71-4.12-.23-2.83-.69-4.02c-.46-1.18-1.16-2.19-2.08-3.02-.92-.83-2.09-1.46-3.5-1.9-1.41-.44-3.06-.66-4.96-.66h-7.61v19.58h7.61Z"/><path class="cls-1" d="m75.34,430.68l-.03,6.72h-31.91v-51.18h31.91v6.72h-23.57v15.42h18.84v6.5h-18.84v15.82h23.6Z"/><path class="cls-1" d="m123.28,437.39h-7.43c-1.47,0-2.53-.57-3.2-1.71l-11.94-17.24c-.4-.59-.84-1.02-1.31-1.28s-1.19-.39-2.13-.39h-4.62v20.61h-8.31v-51.18h15.07c3.36,0,6.26.34,8.69,1.03,2.43.69,4.43,1.66,5.99,2.93,1.56,1.27,2.72,2.79,3.46,4.57.75,1.78,1.12,3.76,1.12,5.93,0,1.78-.27,3.44-.8,4.98-.53,1.54-1.3,2.94-2.31,4.19-1.01,1.26-2.24,2.35-3.71,3.27-1.47.93-3.14,1.65-5.01,2.17,1.02.62,1.89,1.48,2.63,2.59l13.82,19.51Zm-24.09-26.65c1.89,0,3.55-.23,4.97-.69,1.42-.46,2.61-1.1,3.55-1.93.95-.83,1.66-1.82,2.13-2.97.47-1.15.71-2.42.71-3.82,0-2.8-.93-4.93-2.77-6.4-1.85-1.47-4.64-2.2-8.39-2.2h-6.76v18.02h6.54Z"/><path class="cls-1" d="m137.82,392.93v16.38h20.01v6.72h-20.01v21.36h-8.35v-51.18h31.91v6.72h-23.57Z"/><path class="cls-1" d="m201.61,430.68l-.03,6.72h-31.91v-51.18h31.91v6.72h-23.57v15.42h18.84v6.5h-18.84v15.82h23.6Z"/><path class="cls-1" d="m218.92,408.11h2.38c.9,0,1.64-.12,2.2-.37s1.08-.64,1.53-1.19l15.5-18.48c.54-.69,1.1-1.17,1.69-1.44.58-.27,1.31-.41,2.19-.41h7.1l-18.3,21.61c-.5.62-.98,1.13-1.44,1.55-.46.41-.97.75-1.51,1.01.71.26,1.35.62,1.92,1.08.57.46,1.13,1.07,1.67,1.83l18.98,24.09h-7.25c-.52,0-.97-.03-1.33-.11-.37-.07-.69-.18-.96-.32-.27-.14-.51-.32-.71-.54-.2-.21-.38-.45-.55-.71l-15.99-19.55c-.24-.31-.47-.57-.71-.78-.24-.21-.51-.39-.83-.54-.32-.14-.68-.24-1.09-.3-.4-.06-.87-.09-1.42-.09h-3.06v22.92h-8.31v-51.18h8.31v21.89Z"/><path class="cls-1" d="m293.76,393.15h-15.95v44.25h-8.28v-44.25h-15.99v-6.93h40.23v6.93Z"/><path class="cls-1" d="m361.36,411.81c0,3.79-.62,7.26-1.85,10.39-1.23,3.14-2.97,5.83-5.21,8.08-2.24,2.25-4.93,4-8.07,5.24-3.14,1.24-6.62,1.87-10.46,1.87h-19.33v-51.18h19.33c3.84,0,7.33.62,10.46,1.87,3.14,1.24,5.83,2.99,8.07,5.24,2.24,2.25,3.97,4.95,5.21,8.08,1.23,3.14,1.85,6.61,1.85,10.4Zm-8.5,0c0-2.94-.39-5.58-1.19-7.93-.79-2.35-1.93-4.32-3.41-5.93-1.48-1.61-3.28-2.85-5.39-3.71-2.11-.86-4.48-1.3-7.11-1.3h-10.98v37.74h10.98c2.63,0,5-.43,7.11-1.28,2.11-.85,3.9-2.09,5.39-3.71,1.48-1.62,2.61-3.6,3.41-5.93.8-2.33,1.19-4.98,1.19-7.94Z"/><path class="cls-1" d="m378.84,437.39h-8.35v-51.18h8.35v51.18Z"/><path class="cls-1" d="m432.9,412.2v20.26c-5.09,3.67-11.01,5.51-17.77,5.51-4.14,0-7.9-.64-11.24-1.94-3.35-1.29-6.21-3.09-8.58-5.4-2.37-2.31-4.19-5.06-5.47-8.26-1.28-3.2-1.92-6.72-1.92-10.55s.62-7.4,1.85-10.61c1.23-3.21,3-5.97,5.29-8.28,2.3-2.31,5.07-4.1,8.32-5.37,3.25-1.27,6.89-1.9,10.94-1.9,2.06,0,3.97.16,5.74.48,1.76.32,3.41.76,4.92,1.33,1.52.57,2.92,1.26,4.19,2.06,1.28.81,2.45,1.71,3.52,2.7l-2.38,3.8c-.38.59-.87.96-1.46,1.1s-1.23,0-1.92-.43c-.69-.4-1.42-.83-2.19-1.28-.77-.45-1.65-.87-2.64-1.26-.99-.39-2.15-.71-3.45-.96-1.31-.25-2.85-.37-4.62-.37-2.7,0-5.14.44-7.31,1.33-2.16.89-4.02,2.15-5.56,3.8-1.54,1.65-2.72,3.64-3.56,5.99-.83,2.35-1.24,4.96-1.24,7.86,0,3.05.44,5.79,1.32,8.19.87,2.41,2.12,4.44,3.73,6.11,1.61,1.67,3.56,2.94,5.85,3.82,2.28.88,4.84,1.31,7.66,1.31,2.11,0,3.99-.23,5.63-.67,1.65-.45,3.27-1.08,4.85-1.89v-10.16h-7.14c-.54,0-.97-.15-1.28-.45-.31-.3-.46-.68-.46-1.15v-4.73h16.38Z"/><path class="cls-1" d="m451.09,437.39h-8.35v-51.18h8.35v51.18Z"/><path class="cls-1" d="m498.47,393.15h-15.95v44.25h-8.28v-44.25h-15.99v-6.93h40.23v6.93Z"/><path class="cls-1" d="m543.39,437.39h-6.43c-.73,0-1.32-.18-1.78-.55s-.79-.82-1.03-1.37l-4.27-11.3h-22.03l-4.26,11.3c-.19.47-.52.91-.99,1.32-.47.4-1.06.6-1.78.6h-6.43l20.29-51.18h8.42l20.29,51.18Zm-15.75-19.19l-7.03-18.69c-.57-1.45-1.15-3.28-1.74-5.51-.26,1.12-.54,2.14-.86,3.07-.31.94-.59,1.76-.85,2.47l-7.04,18.66h17.52Z"/><path class="cls-1" d="m578.93,430.43v6.96h-29.56v-51.18h8.31v44.21h21.25Z"/><path class="cls-1" d="m614.79,393.15h-15.95v44.25h-8.28v-44.25h-15.99v-6.93h40.23v6.93Z"/><path class="cls-1" d="m660.85,437.39h-7.43c-1.47,0-2.53-.57-3.2-1.71l-11.94-17.24c-.4-.59-.84-1.02-1.31-1.28s-1.19-.39-2.13-.39h-4.62v20.61h-8.31v-51.18h15.07c3.36,0,6.26.34,8.69,1.03,2.43.69,4.43,1.66,5.99,2.93,1.56,1.27,2.72,2.79,3.46,4.57.75,1.78,1.12,3.76,1.12,5.93,0,1.78-.27,3.44-.8,4.98-.53,1.54-1.3,2.94-2.31,4.19-1.01,1.26-2.24,2.35-3.71,3.27-1.47.93-3.14,1.65-5.01,2.17,1.02.62,1.89,1.48,2.63,2.59l13.82,19.51Zm-24.09-26.65c1.89,0,3.55-.23,4.97-.69,1.42-.46,2.61-1.1,3.55-1.93.95-.83,1.66-1.82,2.13-2.97.47-1.15.71-2.42.71-3.82,0-2.8-.93-4.93-2.77-6.4-1.85-1.47-4.64-2.2-8.39-2.2h-6.76v18.02h6.54Z"/><path class="cls-1" d="m685.55,417.35v20.04h-8.28v-20.04l-18.7-31.13h7.29c.73,0,1.31.18,1.74.54.42.35.78.8,1.06,1.35l10.49,18.34c.47.93.9,1.8,1.3,2.63.39.83.74,1.65,1.05,2.45.26-.83.58-1.65.96-2.47.38-.82.8-1.69,1.28-2.61l10.41-18.34c.24-.47.58-.91,1.03-1.3.45-.39,1.04-.59,1.75-.59h7.32l-18.7,31.13Z"/><path class="cls-1" d="m742.81,425.99c.45,0,.84.18,1.17.53l3.31,3.59c-2.09,2.51-4.64,4.45-7.68,5.81-3.04,1.36-6.66,2.04-10.87,2.04-3.75,0-7.13-.64-10.15-1.94-3.02-1.29-5.59-3.09-7.73-5.4-2.13-2.31-3.77-5.06-4.92-8.26-1.15-3.2-1.72-6.72-1.72-10.55s.61-7.36,1.83-10.57c1.22-3.21,2.93-5.97,5.15-8.28,2.21-2.31,4.86-4.1,7.96-5.39,3.09-1.28,6.5-1.92,10.22-1.92s6.96.6,9.79,1.79c2.83,1.2,5.29,2.79,7.38,4.78l-2.74,3.87c-.19.26-.42.49-.68.68-.26.19-.62.28-1.06.28-.47,0-1.02-.22-1.62-.66-.6-.44-1.38-.93-2.31-1.46-.94-.53-2.11-1.02-3.52-1.46-1.41-.44-3.16-.66-5.28-.66-2.44,0-4.68.43-6.72,1.28-2.04.85-3.79,2.1-5.26,3.73-1.47,1.64-2.61,3.63-3.43,5.97-.82,2.35-1.23,5.01-1.23,8s.42,5.69,1.28,8.05c.85,2.36,2.02,4.35,3.52,5.97,1.49,1.62,3.25,2.86,5.26,3.71,2.02.85,4.18,1.28,6.51,1.28,1.42,0,2.7-.08,3.82-.23,1.13-.15,2.16-.4,3.11-.75.95-.34,1.84-.78,2.68-1.3.84-.52,1.67-1.16,2.5-1.92.47-.43.95-.64,1.42-.64Z"/><path class="cls-1" d="m762.81,408.11h2.38c.9,0,1.64-.12,2.2-.37s1.08-.64,1.53-1.19l15.5-18.48c.54-.69,1.1-1.17,1.69-1.44.58-.27,1.31-.41,2.19-.41h7.1l-18.3,21.61c-.5.62-.98,1.13-1.44,1.55-.46.41-.97.75-1.51,1.01.71.26,1.35.62,1.92,1.08.57.46,1.13,1.07,1.67,1.83l18.98,24.09h-7.25c-.52,0-.97-.03-1.33-.11-.37-.07-.69-.18-.96-.32-.27-.14-.51-.32-.71-.54-.2-.21-.38-.45-.55-.71l-15.99-19.55c-.24-.31-.47-.57-.71-.78-.24-.21-.51-.39-.83-.54-.32-.14-.68-.24-1.09-.3-.4-.06-.87-.09-1.42-.09h-3.06v22.92h-8.31v-51.18h8.31v21.89Z"/></g><polygon class="cls-1" points="722.76 0 673.4 104.22 619.33 0 564.48 300.9 526.08 300.9 526.08 121.46 596.61 121.46 574.67 80.71 526.08 81.49 526.08 43.1 574.67 43.1 574.67 .78 484.55 .78 484.55 82.28 448.51 82.28 469.66 123.02 484.55 123.02 484.55 343.21 598.96 343.21 636.57 123.02 673.4 192.76 708.66 123.02 751.76 343.21 792.5 343.21 722.76 0"/><path class="cls-1" d="m2.65,0v43.1h36.05v299.33h41.53v-132.17c13.73,75.16,79.41,132.17,158.54,132.17s148.78-60.57,159.6-139.15v139.15h40.75V43.1h36.83V0H2.65Zm77.58,43.1h75.4c-38.83,23.44-66.96,62.68-75.4,108.91V43.1Zm157.35,258.89c-66.17,0-119.8-53.64-119.8-119.8s53.64-119.8,119.8-119.8,119.8,53.64,119.8,119.8-53.64,119.8-119.8,119.8Zm160.78-143.01c-6.78-49.23-35.7-91.27-76.47-115.88h76.47v115.88Z"/></svg>